<?xml version="1.0" standalone="no"?>
<!DOCTYPE svg PUBLIC "-//W3C//DTD SVG 20010904//EN"
 "http://www.w3.org/TR/2001/REC-SVG-20010904/DTD/svg10.dtd">
<svg version="1.0" xmlns="http://www.w3.org/2000/svg"
 width="128.000000pt" height="128.000000pt" viewBox="0 0 128.000000 128.000000"
 preserveAspectRatio="xMidYMid meet">
<metadata>
Created by potrace 1.11, written by Peter Selinger 2001-2013
</metadata>
<g transform="translate(0.000000,128.000000) scale(0.100000,-0.100000)"
fill="#000000" stroke="none">
<path d="M0 1243 l1 -38 14 34 c18 41 18 41 0 41 -11 0 -15 -11 -15 -37z"/>
<path d="M2 1175 c0 -16 2 -22 5 -12 2 9 2 23 0 30 -3 6 -5 -1 -5 -18z"/>
<path d="M247 1185 c-8 -7 -28 -17 -43 -21 -42 -10 -56 -24 -49 -51 4 -16 1
-23 -10 -23 -15 0 -20 -12 -9 -23 8 -7 44 24 44 39 0 13 76 28 92 18 7 -5 8
-2 3 6 -6 10 -4 12 11 6 37 -15 57 -18 236 -31 96 -8 97 -8 91 14 -3 12 -15
27 -27 33 -30 16 -274 22 -292 7 -9 -8 -14 -8 -14 -1 0 6 5 14 10 17 13 8 3
25 -15 25 -7 0 -20 -7 -28 -15z m-7 -39 c0 -3 -4 -8 -10 -11 -5 -3 -10 -1 -10
4 0 6 5 11 10 11 6 0 10 -2 10 -4z"/>
<path d="M1045 1182 c-16 -2 -34 -8 -39 -13 -6 -5 -18 -9 -28 -9 -10 0 -18 -4
-18 -10 0 -5 7 -10 15 -10 8 0 15 -4 15 -10 0 -6 -9 -6 -25 0 -21 8 -26 5 -39
-18 -9 -15 -18 -35 -22 -44 -3 -10 -15 -18 -25 -18 -21 0 -35 -54 -25 -98 4
-15 7 -33 8 -41 1 -8 23 -36 48 -61 30 -30 48 -56 48 -71 0 -13 1 -31 3 -39 3
-9 -3 -15 -13 -15 -10 0 -18 -4 -18 -8 0 -43 1 -47 20 -47 36 0 56 -84 20 -86
-8 -1 -22 -2 -30 -2 -9 -1 -31 -16 -49 -33 -42 -38 -51 -32 -15 10 14 18 24
34 22 37 -3 2 -11 -2 -18 -11 -7 -8 -19 -15 -26 -15 -8 0 -13 -6 -12 -12 2 -7
-3 -12 -9 -10 -12 2 -17 -10 -14 -30 0 -4 -10 -7 -23 -6 -16 1 -22 7 -19 18 3
10 -8 22 -32 33 -51 24 -57 24 -134 -20 -2 -1 4 -14 13 -29 17 -25 17 -26 -3
-19 -24 7 -28 -7 -6 -25 8 -7 12 -16 9 -22 -3 -5 0 -15 6 -23 9 -10 9 -15 1
-15 -6 0 -13 11 -17 25 -8 32 -16 32 -31 0 -10 -22 -5 -30 13 -22 4 1 10 -8
15 -20 8 -22 42 -28 65 -12 5 5 23 1 39 -7 16 -8 34 -13 40 -10 6 2 18 -2 27
-8 14 -10 11 -12 -19 -13 -20 -1 -38 -5 -42 -11 -3 -5 -22 -10 -41 -10 -19 -1
-57 -6 -85 -11 -59 -12 -152 -13 -179 -2 -18 7 -18 8 -2 14 9 4 14 12 11 17
-4 6 -3 10 2 9 20 -3 29 2 29 19 1 9 4 26 8 37 5 12 -4 7 -23 -15 -17 -19 -31
-30 -31 -24 0 5 5 15 12 22 22 22 1 23 -36 3 -20 -12 -36 -17 -36 -12 0 5 6
11 13 14 6 2 9 8 4 12 -13 15 -34 -27 -31 -62 1 -19 -2 -31 -7 -27 -6 3 -7 -4
-4 -19 4 -14 2 -28 -5 -32 -8 -5 -6 -11 7 -21 23 -17 33 -17 33 1 0 10 8 7 26
-10 20 -19 29 -21 38 -12 7 6 11 20 8 30 -5 21 -10 22 63 -22 75 -46 105 -60
105 -50 0 6 7 9 15 5 13 -5 14 -2 4 17 -10 19 -10 20 2 11 16 -13 32 -15 103
-15 48 0 48 0 30 -20 -12 -13 -14 -23 -7 -30 12 -12 65 -15 81 -5 6 3 13 2 17
-4 4 -7 13 -7 26 0 11 6 23 9 28 6 15 -9 31 19 28 49 -2 23 4 32 26 45 23 13
29 13 36 1 7 -11 16 -6 40 20 l30 34 -9 -32 c-8 -30 -6 -34 16 -39 25 -6 31
-18 14 -29 -16 -10 -12 -35 6 -35 14 0 14 -2 0 -15 -8 -9 -18 -31 -22 -49 -4
-22 -13 -36 -25 -39 -13 -3 -17 -11 -13 -21 8 -22 -12 -20 -25 2 -9 14 -12 15
-20 2 -5 -8 -7 -18 -5 -22 3 -4 -2 -5 -10 -2 -9 3 -16 1 -16 -5 0 -16 87 -14
93 2 4 9 6 9 6 0 1 -9 23 -13 74 -13 l73 0 24 53 c14 28 24 59 23 67 -1 8 4
18 10 22 14 9 17 29 22 176 2 65 0 112 -6 112 -5 0 -9 9 -9 20 0 11 3 20 8 20
4 0 8 20 9 44 1 46 -10 57 -49 48 -30 -6 -13 -132 17 -132 19 0 29 -19 17 -33
-21 -27 -31 -76 -19 -89 11 -12 12 -23 8 -70 0 -10 -5 -18 -10 -18 -10 0 -9
25 2 36 3 3 -1 13 -9 21 -10 11 -18 12 -27 4 -10 -8 -12 -2 -8 27 3 20 6 29 9
20 2 -10 8 -18 12 -18 6 0 5 11 0 26 -6 14 -10 43 -10 64 0 44 -28 109 -48
110 -7 0 -15 7 -18 15 -4 8 -13 15 -20 15 -8 0 -18 8 -21 17 -4 10 -10 20 -14
23 -10 7 0 50 11 50 5 0 4 16 -1 35 -6 19 -9 41 -8 47 3 17 -11 49 -20 44 -3
-2 -11 7 -18 20 -9 19 -8 27 4 39 16 17 33 20 33 6 0 -5 7 -11 15 -15 26 -10
16 14 -10 26 -15 7 -24 17 -21 25 3 7 -1 13 -9 13 -9 0 -12 6 -9 15 4 8 15 15
25 15 26 0 99 30 99 41 0 5 16 2 37 -6 20 -8 38 -14 40 -12 2 2 -2 18 -8 34
-12 37 -75 83 -112 83 -14 0 -49 5 -76 11 -50 10 -50 11 -32 30 19 21 48 27
143 31 31 2 54 6 51 11 -2 4 0 7 5 7 15 0 22 39 9 47 -12 8 -138 11 -192 5z
m180 -22 c-3 -5 -14 -10 -23 -9 -14 0 -13 2 3 9 27 11 27 11 20 0z m-250 -208
c-11 -11 -25 15 -19 33 7 17 8 16 16 -5 5 -13 6 -25 3 -28z m50 39 c3 -5 1
-12 -5 -16 -5 -3 -10 1 -10 9 0 18 6 21 15 7z m111 -6 c19 -15 19 -15 0 -30
-31 -23 -43 -19 -38 15 5 34 10 36 38 15z m-389 -454 c10 -16 9 -20 -8 -24
-10 -3 -19 -1 -19 4 0 5 -7 9 -16 9 -9 0 -12 -5 -8 -12 4 -6 -5 -3 -19 8 -37
27 -34 34 16 34 31 0 45 -5 54 -19z m520 3 c2 -5 -4 -19 -13 -29 -8 -11 -13
-15 -10 -8 4 6 2 14 -3 18 -13 7 -2 37 12 32 6 -2 12 -8 14 -13z m-568 -105
c-19 -12 -24 -2 -8 17 9 11 14 13 17 4 3 -7 -2 -16 -9 -21z m201 -61 c0 -6 -6
-8 -14 -5 -7 3 -19 0 -25 -6 -13 -13 -25 -3 -18 16 6 16 57 11 57 -5z m65 8
c11 0 34 3 51 8 25 5 33 3 38 -9 3 -9 4 -21 0 -26 -7 -12 -71 -12 -79 1 -3 5
-12 7 -19 4 -8 -3 -17 0 -21 5 -3 6 -11 9 -16 6 -5 -4 -9 1 -9 10 0 13 5 15
18 9 9 -4 26 -7 37 -8z m0 -76 c3 -5 1 -10 -4 -10 -6 0 -11 5 -11 10 0 6 2 10
4 10 3 0 8 -4 11 -10z m148 -4 c4 -10 1 -13 -8 -9 -8 3 -12 9 -9 14 7 12 11
11 17 -5z m-329 -16 c5 -5 14 -6 20 -1 6 4 23 11 37 15 26 6 39 -6 39 -34 0
-30 -104 -46 -195 -31 -33 6 -79 13 -102 15 -24 3 -47 7 -53 11 -16 10 -11 26
8 24 9 -1 25 1 34 5 9 4 25 3 34 -2 12 -7 21 -6 30 3 15 14 132 11 148 -5z
m146 5 c0 -8 -9 -15 -20 -15 -11 0 -20 7 -20 15 0 8 9 15 20 15 11 0 20 -7 20
-15z m248 -10 c-3 -3 -9 2 -12 12 -6 14 -5 15 5 6 7 -7 10 -15 7 -18z m-74
-21 c9 -22 8 -24 -9 -18 -8 4 -15 12 -15 20 0 19 16 18 24 -2z"/>
<path d="M408 1053 c-21 -2 -38 -8 -38 -13 0 -4 -15 -13 -32 -19 -30 -10 -31
-9 -14 4 27 20 13 19 -42 -5 -83 -36 -91 -79 -14 -80 17 0 32 -4 32 -10 0 -5
9 -10 20 -10 11 0 20 -4 20 -10 0 -5 7 -10 15 -10 8 0 15 5 15 10 0 6 5 10 10
10 6 0 9 -6 8 -12 -2 -9 13 -13 50 -14 30 0 57 -5 60 -11 14 -22 48 -24 67 -3
10 11 13 20 7 20 -7 0 -12 7 -12 15 0 8 9 15 20 15 11 0 20 5 20 11 0 6 -9 13
-20 16 -23 6 -26 21 -6 29 18 7 10 32 -17 57 -20 17 -57 19 -149 10z m92 -77
c0 -15 -9 -27 -26 -35 -24 -10 -26 -10 -19 6 4 10 10 28 12 40 6 28 33 19 33
-11z m-152 -41 c-2 -2 -14 5 -28 16 -21 16 -23 20 -10 29 11 7 18 3 28 -16 8
-14 12 -27 10 -29z m42 45 c0 -5 -4 -10 -10 -10 -5 0 -10 5 -10 10 0 6 5 10
10 10 6 0 10 -4 10 -10z"/>
<path d="M377 837 c-29 -45 -68 -149 -74 -197 -7 -62 22 -110 68 -110 27 0 28
-1 12 -19 -9 -11 -22 -17 -30 -14 -8 3 -13 0 -11 -8 2 -8 -7 -15 -19 -17 -13
-2 -23 -10 -23 -19 0 -24 -23 -83 -31 -83 -4 0 -1 -20 8 -45 8 -25 19 -45 24
-45 5 0 9 24 9 54 0 54 26 106 53 106 15 1 98 79 115 108 17 31 16 148 -2 155
-7 3 -16 17 -20 32 -10 40 -49 125 -57 125 -4 0 -14 -11 -22 -23z"/>
<path d="M1207 643 c-4 -3 -7 -11 -7 -17 0 -6 5 -5 12 2 6 6 9 14 7 17 -3 3
-9 2 -12 -2z"/>
<path d="M1190 509 c0 -5 5 -7 10 -4 6 3 10 8 10 11 0 2 -4 4 -10 4 -5 0 -10
-5 -10 -11z"/>
<path d="M1 312 c-1 -199 0 -204 25 -258 27 -58 54 -71 74 -34 7 14 7 20 0 20
-5 0 -10 -7 -10 -15 0 -8 -4 -15 -10 -15 -5 0 -10 7 -10 15 0 8 -4 15 -10 15
-5 0 -10 5 -10 11 0 5 5 7 12 3 8 -5 9 -2 5 9 -8 21 -3 21 27 1 13 -8 27 -26
30 -39 6 -23 9 -23 111 -23 74 -1 105 3 105 11 0 7 4 6 10 -3 8 -11 10 -5 8
25 -1 40 -13 65 -29 65 -5 0 -9 -4 -9 -10 0 -5 7 -10 15 -10 17 0 19 -9 6 -28
-6 -10 -14 -4 -30 23 -11 20 -21 40 -21 45 0 5 -7 7 -15 4 -10 -4 -15 0 -15
14 0 11 -7 25 -16 33 -11 9 -14 22 -10 43 3 17 1 38 -5 46 -8 12 -10 9 -6 -12
2 -15 0 -33 -4 -40 -7 -10 -9 -9 -9 5 0 21 -35 57 -55 57 -15 0 -19 16 -15 54
3 33 -10 68 -24 63 -8 -3 -18 5 -25 19 -6 13 -15 24 -21 24 -6 0 -8 5 -5 10
10 16 -2 12 -21 -7 -16 -16 -16 -16 -10 4 4 14 2 24 -7 30 -8 4 -17 17 -20 28
-2 11 -5 -71 -6 -183z m89 59 c0 -6 -4 -13 -10 -16 -5 -3 -10 1 -10 9 0 9 5
16 10 16 6 0 10 -4 10 -9z m28 -37 c1 -22 -4 -41 -14 -51 -14 -14 -15 -12 -8
22 5 31 4 36 -7 30 -8 -5 -5 1 5 13 11 12 20 22 20 22 1 0 2 -16 4 -36z m19
-124 c10 -13 8 -16 -8 -16 -19 0 -26 16 -12 29 3 4 7 6 7 5 1 -2 7 -10 13 -18z
m66 -40 c-7 -8 -33 32 -33 49 0 9 8 3 19 -14 10 -16 16 -32 14 -35z m-141 -50
c4 0 8 -5 8 -10 0 -7 -6 -7 -20 0 -13 7 -20 20 -19 38 l1 27 11 -27 c6 -16 14
-28 19 -28z m165 28 c-3 -8 -6 -5 -6 6 -1 11 2 17 5 13 3 -3 4 -12 1 -19z m63
-59 c0 -6 -4 -7 -10 -4 -5 3 -10 11 -10 16 0 6 5 7 10 4 6 -3 10 -11 10 -16z"/>
<path d="M546 452 c-2 -4 -1 -14 3 -21 6 -9 10 -7 14 8 5 20 -7 29 -17 13z"/>
<path d="M470 386 c0 -9 7 -12 20 -9 11 3 17 9 14 14 -8 14 -34 10 -34 -5z"/>
<path d="M562 379 c2 -6 8 -10 13 -10 5 0 11 4 13 10 2 6 -4 11 -13 11 -9 0
-15 -5 -13 -11z"/>
<path d="M176 321 c-4 -7 -5 -15 -2 -18 9 -9 19 4 14 18 -4 11 -6 11 -12 0z"/>
<path d="M345 210 c-3 -5 1 -10 10 -10 9 0 13 5 10 10 -3 6 -8 10 -10 10 -2 0
-7 -4 -10 -10z"/>
<path d="M364 179 c-3 -6 -1 -16 5 -22 8 -8 11 -5 11 11 0 24 -5 28 -16 11z"/>
<path d="M1055 140 c3 -5 8 -10 11 -10 2 0 4 5 4 10 0 6 -5 10 -11 10 -5 0 -7
-4 -4 -10z"/>
<path d="M340 136 c0 -2 7 -9 15 -16 13 -11 14 -10 9 4 -5 14 -24 23 -24 12z"/>
<path d="M790 105 c-8 -9 -8 -15 -2 -15 12 0 26 19 19 26 -2 2 -10 -2 -17 -11z"/>
<path d="M890 111 c0 -5 7 -12 16 -15 14 -5 15 -4 4 9 -14 17 -20 19 -20 6z"/>
<path d="M841 94 c0 -11 3 -14 6 -6 3 7 2 16 -1 19 -3 4 -6 -2 -5 -13z"/>
<path d="M383 64 c0 -18 2 -22 8 -13 11 18 11 39 0 39 -5 0 -8 -12 -8 -26z"/>
<path d="M416 63 c-6 -14 -5 -15 5 -6 7 7 10 15 7 18 -3 3 -9 -2 -12 -12z"/>
<path d="M757 66 c-4 -9 -14 -12 -26 -9 -15 4 -21 1 -21 -12 0 -14 3 -15 15
-5 13 11 15 8 15 -14 0 -25 2 -26 64 -26 46 0 70 5 87 19 13 10 30 16 37 13
10 -3 9 3 -3 22 -10 14 -22 26 -27 26 -6 0 -5 -7 2 -15 20 -24 6 -27 -18 -5
-12 12 -22 16 -22 10 0 -6 7 -13 15 -16 8 -4 15 -14 14 -23 0 -10 -2 -11 -6
-3 -2 6 -11 12 -18 12 -8 0 -19 9 -25 20 -14 27 -44 27 -37 0 6 -25 -19 -48
-35 -32 -9 9 -9 12 0 12 7 0 12 9 12 20 0 23 -15 27 -23 6z"/>
<path d="M381 14 c0 -11 3 -14 6 -6 3 7 2 16 -1 19 -3 4 -6 -2 -5 -13z"/>
<path d="M420 15 c-10 -12 -10 -15 4 -15 9 0 16 5 16 11 0 8 4 8 14 0 9 -7 17
-8 20 -3 3 6 -1 13 -10 16 -23 9 -30 8 -44 -9z"/>
<path d="M910 10 c0 -5 5 -10 11 -10 5 0 7 5 4 10 -3 6 -8 10 -11 10 -2 0 -4
-4 -4 -10z"/>
</g>
</svg>
